<?xml version="1.0" ?><!DOCTYPE svg  PUBLIC '-//W3C//DTD SVG 1.1//EN'  'http://www.w3.org/Graphics/SVG/1.1/DTD/svg11.dtd'><svg enable-background="new 0 0 100 100" id="Layer_1" version="1.1" viewBox="0 0 100 100" xml:space="preserve" xmlns="http://www.w3.org/2000/svg" xmlns:xlink="http://www.w3.org/1999/xlink"><path d="M69.938,31.412l-0.285-6.072L49.36,26.293l-2.402-5.488L13.407,35.49l17.999,41.121l11.618-5.085l2.46-0.116  l29.744,7.785l11.365-43.424L69.938,31.412z M33.853,70.354l-14.19-32.417L44.51,27.062L58.7,59.479L33.853,70.354z M64.956,61.926  L51.399,30.952l13.732-0.645l1.66,35.348L55.193,66.2L64.956,61.926z M71.837,73.396l-10.446-2.733l10.367-0.487l-1.587-33.793  l10.624,2.78L71.837,73.396z M42.324,36.868l-0.21-1.78l1.76-0.771l1.19,1.351l1.086-0.475l-4.228-4.756l-1.292,0.565l0.65,6.322  L42.324,36.868z M41.599,31.539c0.223,0.285,0.479,0.624,0.734,0.914l1.034,1.175l-1.423,0.623l-0.17-1.553  c-0.045-0.372-0.132-0.795-0.191-1.152L41.599,31.539z M40.279,50.968c1.914,2.225,6.347,0.369,5.964-3.328  c-0.622-5.998-8.207-4.689-10.398-6.555c-0.115,2.875-6.222,7.56-2.238,12.086c2.456,2.79,6.826,0.792,6.491-2.124  c0.463,1.997-0.246,4.08-1.796,5.38l0.274,0.122l6.779-2.967l0.096-0.284C43.444,53.556,41.432,52.664,40.279,50.968z   M34.426,61.226l0.65,6.322l1.045-0.457l-0.211-1.78l1.76-0.77l1.19,1.351l1.086-0.475l-4.228-4.756L34.426,61.226z M37.163,63.851  l-1.423,0.623l-0.17-1.553c-0.045-0.372-0.132-0.795-0.191-1.152l0.017-0.007c0.223,0.285,0.479,0.624,0.734,0.914L37.163,63.851z" fill="#ffffff"/></svg>